<?xml version="1.0" encoding="UTF-8" standalone="no"?>
<svg width="1024" height="1024" viewBox="0 0 1024 1024"
     xmlns="http://www.w3.org/2000/svg">
  <rect x="0" y="0" width="1024" height="1024" fill="#000000"/>
  <g transform="translate(104,410) scale(4.08)"
     fill="none" stroke="#FFFFFF" stroke-width="4"
     stroke-linecap="round" stroke-linejoin="round">
    <path d="M 75,5 a 10,10 0 0 1 10,10 m -10,-10 h -20 m -10,10 a 10,10 0 0 1 10,-10 m -20,0 a 10,10 0 0 1 10,10 m -10,-10 h -20 m -10,10 a 10,10 0 0 1 10,-10 m -10,10 a 10,10 0 0 0 10,10 h 20 a 10,10 0 0 1 10,10 a 10,10 0 0 1 -10,10 h -20 a 10,10 0 0 1 -10,-10 m 40,0 a 10,10 0 0 0 10,10 h 20 a 10,10 0 0 0 10,-10"/>
    <path d="M 95,5 v 40"/>
    <path d="M 115,5 h 20 a 10,10 0 0 1 10,10 v 20 a 10,10 0 0 1 -10,10 h -20 a 10,10 0 0 1 -10,-10 v -20 a 10,10 0 0 1 10,-10 Z"/>
    <path d="M 155,45 v -30 a 10,10 0 0 1 20,0 v 20 a 10,10 0 0 0 20,0 v -30"/>
  </g>
</svg>
